<svg xmlns="http://www.w3.org/2000/svg" width="1400" height="420" viewBox="0 0 1400 420" role="img" aria-labelledby="title desc">
  <title id="title">Aman Ranjan — Cybersecurity, AppSec and AI Expert</title>
  <desc id="desc">Professional profile banner for Aman Ranjan, a cybersecurity, application security and AI expert, and founder of LACSA TECH.</desc>
  <defs>
    <linearGradient id="bg" x1="0" y1="0" x2="1" y2="1">
      <stop offset="0" stop-color="#070B16"/>
      <stop offset="0.52" stop-color="#0B1630"/>
      <stop offset="1" stop-color="#06141D"/>
    </linearGradient>
    <linearGradient id="accent" x1="0" y1="0" x2="1" y2="0">
      <stop offset="0" stop-color="#58A6FF"/>
      <stop offset="0.55" stop-color="#38BDF8"/>
      <stop offset="1" stop-color="#3FB950"/>
    </linearGradient>
    <radialGradient id="glow" cx="50%" cy="50%" r="50%">
      <stop offset="0" stop-color="#2F81F7" stop-opacity="0.28"/>
      <stop offset="1" stop-color="#2F81F7" stop-opacity="0"/>
    </radialGradient>
    <pattern id="grid" width="36" height="36" patternUnits="userSpaceOnUse">
      <path d="M36 0H0V36" fill="none" stroke="#58A6FF" stroke-opacity="0.08"/>
    </pattern>
    <filter id="softGlow" x="-80%" y="-80%" width="260%" height="260%">
      <feGaussianBlur stdDeviation="8" result="blur"/>
      <feMerge><feMergeNode in="blur"/><feMergeNode in="SourceGraphic"/></feMerge>
    </filter>
  </defs>

  <rect width="1400" height="420" rx="28" fill="url(#bg)"/>
  <rect width="1400" height="420" rx="28" fill="url(#grid)"/>
  <circle cx="1160" cy="195" r="300" fill="url(#glow)"/>
  <path d="M0 354 C280 310 420 414 710 360 S1130 296 1400 352 V420 H0Z" fill="#58A6FF" fill-opacity="0.035"/>
  <rect x="1.5" y="1.5" width="1397" height="417" rx="26.5" fill="none" stroke="url(#accent)" stroke-opacity="0.55" stroke-width="3"/>

  <g transform="translate(76 66)">
    <rect width="430" height="34" rx="17" fill="#58A6FF" fill-opacity="0.10" stroke="#58A6FF" stroke-opacity="0.35"/>
    <circle cx="19" cy="17" r="5" fill="#3FB950" filter="url(#softGlow)"/>
    <text x="34" y="22" fill="#8B949E" font-family="Consolas, 'Courier New', monospace" font-size="14" letter-spacing="1.4">CYBERSECURITY  •  APPSEC  •  AI EXPERT</text>

    <text y="112" fill="#F0F6FC" font-family="'Segoe UI', Arial, sans-serif" font-size="66" font-weight="750" letter-spacing="-2">AMAN RANJAN</text>
    <rect y="131" width="600" height="5" rx="2.5" fill="url(#accent)"/>
    <text y="178" fill="#79C0FF" font-family="Consolas, 'Courier New', monospace" font-size="25" font-weight="600" letter-spacing="2">CYBERSECURITY × APPSEC × ARTIFICIAL INTELLIGENCE</text>
    <text y="222" fill="#C9D1D9" font-family="'Segoe UI', Arial, sans-serif" font-size="19">Cybersecurity &amp; AppSec Expert  ·  AI Expert  ·  Founder, LACSA TECH</text>
    <text y="256" fill="#8B949E" font-family="'Segoe UI', Arial, sans-serif" font-size="17">Securing platforms. Building intelligent systems. Teaching practical skills.</text>

    <g transform="translate(0 291)" font-family="Consolas, 'Courier New', monospace" font-size="13" font-weight="600">
      <rect width="185" height="36" rx="9" fill="#0D213A" stroke="#58A6FF" stroke-opacity="0.35"/>
      <text x="16" y="23" fill="#79C0FF">43  SECURITY FINDINGS</text>
      <rect x="199" width="155" height="36" rx="9" fill="#0D213A" stroke="#38BDF8" stroke-opacity="0.35"/>
      <text x="215" y="23" fill="#7DD3FC">50+  PLATFORMS</text>
      <rect x="368" width="180" height="36" rx="9" fill="#0D2A25" stroke="#3FB950" stroke-opacity="0.38"/>
      <text x="384" y="23" fill="#56D364">1,000+  STUDENTS</text>
    </g>
  </g>

  <g transform="translate(1042 58)">
    <circle cx="145" cy="145" r="132" fill="#0D1117" fill-opacity="0.55" stroke="#58A6FF" stroke-opacity="0.18"/>
    <circle cx="145" cy="145" r="106" fill="none" stroke="#58A6FF" stroke-opacity="0.16" stroke-dasharray="5 11"/>
    <path d="M145 52 L220 80 V137 C220 191 190 229 145 250 C100 229 70 191 70 137 V80Z" fill="#0B1F35" stroke="url(#accent)" stroke-width="4"/>
    <path d="M113 145 L137 169 L180 119" fill="none" stroke="#3FB950" stroke-width="8" stroke-linecap="round" stroke-linejoin="round" filter="url(#softGlow)"/>

    <g fill="#58A6FF" filter="url(#softGlow)">
      <circle cx="145" cy="18" r="5"/><circle cx="272" cy="145" r="5"/><circle cx="145" cy="272" r="5"/><circle cx="18" cy="145" r="5"/>
    </g>
    <g stroke="#58A6FF" stroke-opacity="0.42" stroke-width="2">
      <path d="M145 23V45"/><path d="M267 145H240"/><path d="M145 267V245"/><path d="M23 145H50"/>
      <path d="M55 55L78 78"/><path d="M235 55L212 78"/><path d="M235 235L212 212"/><path d="M55 235L78 212"/>
    </g>
    <g fill="#38BDF8">
      <circle cx="55" cy="55" r="4"/><circle cx="235" cy="55" r="4"/><circle cx="235" cy="235" r="4"/><circle cx="55" cy="235" r="4"/>
    </g>
    <text x="145" y="320" text-anchor="middle" fill="#8B949E" font-family="Consolas, 'Courier New', monospace" font-size="14" letter-spacing="2">SECURE • BUILD • ENABLE</text>
  </g>
</svg>
