<svg xmlns="http://www.w3.org/2000/svg" width="720" height="760" viewBox="0 0 720 760" role="img" aria-labelledby="title desc">
  <title id="title">Aman Ranjan mobile impact signals</title>
  <desc id="desc">Mobile impact cards for learners, findings, platform migrations and learning assets.</desc>
  <defs><linearGradient id="bg" x1="0" y1="0" x2="1" y2="1"><stop stop-color="#080D1B"/><stop offset="1" stop-color="#0B1327"/></linearGradient><linearGradient id="line"><stop stop-color="#2F81F7"/><stop offset=".4" stop-color="#22D3EE"/><stop offset=".72" stop-color="#A78BFA"/><stop offset="1" stop-color="#F59E0B"/></linearGradient><pattern id="grid" width="32" height="32" patternUnits="userSpaceOnUse"><path d="M32 0H0V32" fill="none" stroke="#58A6FF" stroke-opacity=".055"/></pattern></defs>
  <rect width="720" height="760" rx="28" fill="url(#bg)"/><rect width="720" height="760" rx="28" fill="url(#grid)"/><rect x="2" y="2" width="716" height="756" rx="26" fill="none" stroke="url(#line)" stroke-opacity=".4" stroke-width="2"/>
  <text x="42" y="58" fill="#8B949E" font-family="Consolas, monospace" font-size="16" letter-spacing="2.2">LIVE IMPACT SIGNALS</text><rect x="42" y="77" width="636" height="3" rx="1.5" fill="url(#line)"/>
  <g transform="translate(42 112)" font-family="'Segoe UI', Arial, sans-serif">
    <g><rect width="304" height="270" rx="20" fill="#0D213A" stroke="#2F81F7" stroke-opacity=".5"/><text x="24" y="54" fill="#79C0FF" font-family="Consolas, monospace" font-size="14">WORKSHOP REACH</text><text x="24" y="132" fill="#F0F6FC" font-size="46" font-weight="800">10,000+</text><text x="24" y="174" fill="#8B949E" font-size="18">learners trained</text><path d="M24 214h160" stroke="#2F81F7" stroke-opacity=".35"/><text x="24" y="246" fill="#79C0FF" font-size="14">LIVE WORKSHOPS</text></g>
    <g transform="translate(332)"><rect width="304" height="270" rx="20" fill="#0D252B" stroke="#22D3EE" stroke-opacity=".5"/><text x="24" y="54" fill="#67E8F9" font-family="Consolas, monospace" font-size="14">SECURITY DEPTH</text><text x="24" y="132" fill="#F0F6FC" font-size="46" font-weight="800">43</text><text x="24" y="174" fill="#8B949E" font-size="18">findings</text><path d="M24 214h160" stroke="#22D3EE" stroke-opacity=".35"/><text x="24" y="246" fill="#67E8F9" font-size="14">ONE ASSESSMENT</text></g>
    <g transform="translate(0 302)"><rect width="304" height="270" rx="20" fill="#191A35" stroke="#A78BFA" stroke-opacity=".5"/><text x="24" y="54" fill="#C4B5FD" font-family="Consolas, monospace" font-size="14">PLATFORM SCALE</text><text x="24" y="132" fill="#F0F6FC" font-size="46" font-weight="800">50+</text><text x="24" y="174" fill="#8B949E" font-size="18">migrations</text><path d="M24 214h160" stroke="#A78BFA" stroke-opacity=".35"/><text x="24" y="246" fill="#C4B5FD" font-size="14">AUTHORIZED WORK</text></g>
    <g transform="translate(332 302)"><rect width="304" height="270" rx="20" fill="#251C17" stroke="#F59E0B" stroke-opacity=".5"/><text x="24" y="54" fill="#FBBF24" font-family="Consolas, monospace" font-size="14">MIGRATION VOLUME</text><text x="24" y="132" fill="#F0F6FC" font-size="46" font-weight="800">100K+</text><text x="24" y="174" fill="#8B949E" font-size="18">learning assets</text><path d="M24 214h160" stroke="#F59E0B" stroke-opacity=".35"/><text x="24" y="246" fill="#FBBF24" font-size="14">STRUCTURED DELIVERY</text></g>
  </g>
</svg>
