<svg xmlns="http://www.w3.org/2000/svg" width="1400" height="330" viewBox="0 0 1400 330" role="img" aria-labelledby="title desc">
  <title id="title">Aman Ranjan impact signals</title>
  <desc id="desc">Four impact cards showing workshop learners, security findings, platform migrations and learning assets migrated.</desc>
  <defs>
    <linearGradient id="bg" x1="0" y1="0" x2="1" y2="1"><stop stop-color="#080D1B"/><stop offset="1" stop-color="#0B1327"/></linearGradient>
    <linearGradient id="line" x1="0" y1="0" x2="1" y2="0"><stop stop-color="#2F81F7"/><stop offset=".4" stop-color="#22D3EE"/><stop offset=".72" stop-color="#A78BFA"/><stop offset="1" stop-color="#F59E0B"/></linearGradient>
    <pattern id="grid" width="32" height="32" patternUnits="userSpaceOnUse"><path d="M32 0H0V32" fill="none" stroke="#58A6FF" stroke-opacity=".055"/></pattern>
  </defs>
  <rect width="1400" height="330" rx="26" fill="url(#bg)"/>
  <rect width="1400" height="330" rx="26" fill="url(#grid)"/>
  <rect x="2" y="2" width="1396" height="326" rx="24" fill="none" stroke="url(#line)" stroke-opacity=".35" stroke-width="2"/>
  <text x="58" y="58" fill="#8B949E" font-family="Consolas, 'Courier New', monospace" font-size="14" letter-spacing="2.5">LIVE IMPACT SIGNALS</text>
  <rect x="58" y="75" width="1284" height="3" rx="1.5" fill="url(#line)"/>
  <g transform="translate(58 112)" font-family="'Segoe UI', Arial, sans-serif">
    <g><rect width="294" height="160" rx="18" fill="#0D213A" stroke="#2F81F7" stroke-opacity=".48"/><circle cx="245" cy="42" r="25" fill="#2F81F7" fill-opacity=".12"/><path d="M232 42h26M245 29v26" stroke="#79C0FF" stroke-width="3"/><text x="24" y="48" fill="#79C0FF" font-family="Consolas, monospace" font-size="13" letter-spacing="1.2">WORKSHOP REACH</text><text x="24" y="100" fill="#F0F6FC" font-size="38" font-weight="800">10,000+</text><text x="24" y="132" fill="#8B949E" font-size="16">learners trained</text></g>
    <g transform="translate(330)"><rect width="294" height="160" rx="18" fill="#0D252B" stroke="#22D3EE" stroke-opacity=".48"/><circle cx="245" cy="42" r="25" fill="#22D3EE" fill-opacity=".1"/><path d="M233 42l8 8 16-18" fill="none" stroke="#67E8F9" stroke-width="3" stroke-linecap="round"/><text x="24" y="48" fill="#67E8F9" font-family="Consolas, monospace" font-size="13" letter-spacing="1.2">SECURITY DEPTH</text><text x="24" y="100" fill="#F0F6FC" font-size="38" font-weight="800">43</text><text x="24" y="132" fill="#8B949E" font-size="16">findings · one assessment</text></g>
    <g transform="translate(660)"><rect width="294" height="160" rx="18" fill="#191A35" stroke="#A78BFA" stroke-opacity=".48"/><circle cx="245" cy="42" r="25" fill="#A78BFA" fill-opacity=".1"/><path d="M232 47h26M232 37h18" stroke="#C4B5FD" stroke-width="3" stroke-linecap="round"/><text x="24" y="48" fill="#C4B5FD" font-family="Consolas, monospace" font-size="13" letter-spacing="1.2">PLATFORM SCALE</text><text x="24" y="100" fill="#F0F6FC" font-size="38" font-weight="800">50+</text><text x="24" y="132" fill="#8B949E" font-size="16">platform migrations</text></g>
    <g transform="translate(990)"><rect width="294" height="160" rx="18" fill="#251C17" stroke="#F59E0B" stroke-opacity=".5"/><circle cx="245" cy="42" r="25" fill="#F59E0B" fill-opacity=".1"/><path d="M234 34h22v18h-22zM239 29h12" fill="none" stroke="#FBBF24" stroke-width="3"/><text x="24" y="48" fill="#FBBF24" font-family="Consolas, monospace" font-size="13" letter-spacing="1.2">MIGRATION VOLUME</text><text x="24" y="100" fill="#F0F6FC" font-size="38" font-weight="800">100K+</text><text x="24" y="132" fill="#8B949E" font-size="16">learning assets</text></g>
  </g>
</svg>
