<svg xmlns="http://www.w3.org/2000/svg" width="1400" height="150" viewBox="0 0 1400 150" role="img" aria-label="02 Build — AI systems and developer tools"><defs><linearGradient id="b"><stop stop-color="#11102A"/><stop offset="1" stop-color="#0A1830"/></linearGradient><linearGradient id="l"><stop stop-color="#A78BFA"/><stop offset="1" stop-color="#22D3EE"/></linearGradient><pattern id="g" width="28" height="28" patternUnits="userSpaceOnUse"><path d="M28 0H0V28" fill="none" stroke="#A78BFA" stroke-opacity=".06"/></pattern></defs><rect width="1400" height="150" rx="22" fill="url(#b)"/><rect width="1400" height="150" rx="22" fill="url(#g)"/><rect x="2" y="2" width="1396" height="146" rx="20" fill="none" stroke="url(#l)" stroke-opacity=".48" stroke-width="2"/><g transform="translate(36 30)"><rect width="84" height="90" rx="16" fill="#A78BFA" fill-opacity=".11" stroke="#A78BFA" stroke-opacity=".45"/><circle cx="42" cy="45" r="10" fill="#C4B5FD"/><circle cx="23" cy="27" r="5" fill="#22D3EE"/><circle cx="61" cy="27" r="5" fill="#2F81F7"/><circle cx="23" cy="64" r="5" fill="#F59E0B"/><circle cx="61" cy="64" r="5" fill="#3FB950"/><g stroke="#C4B5FD" stroke-width="2"><path d="M30 33l7 7M54 33l-7 7M30 58l7-8M54 58l-7-8"/></g></g><text x="155" y="65" fill="#C4B5FD" font-family="Consolas, monospace" font-size="15" letter-spacing="2.2">02 / BUILD</text><text x="155" y="105" fill="#F0F6FC" font-family="'Segoe UI', Arial, sans-serif" font-size="34" font-weight="750">Applied AI · Developer Tools · Experimental Systems</text><text x="1280" y="88" text-anchor="end" fill="#A78BFA" fill-opacity=".3" font-family="Consolas, monospace" font-size="70" font-weight="700">CREATE</text></svg>
