<svg xmlns="http://www.w3.org/2000/svg" width="720" height="180" viewBox="0 0 720 180" role="img" aria-label="02 Build — Applied AI and developer tools"><defs><linearGradient id="b"><stop stop-color="#11102A"/><stop offset="1" stop-color="#0A1830"/></linearGradient><linearGradient id="l"><stop stop-color="#A78BFA"/><stop offset="1" stop-color="#22D3EE"/></linearGradient><pattern id="g" width="28" height="28" patternUnits="userSpaceOnUse"><path d="M28 0H0V28" fill="none" stroke="#A78BFA" stroke-opacity=".06"/></pattern></defs><rect width="720" height="180" rx="22" fill="url(#b)"/><rect width="720" height="180" rx="22" fill="url(#g)"/><rect x="2" y="2" width="716" height="176" rx="20" fill="none" stroke="url(#l)" stroke-opacity=".5" stroke-width="2"/><rect x="28" y="35" width="105" height="110" rx="18" fill="#A78BFA" fill-opacity=".11" stroke="#A78BFA" stroke-opacity=".45"/><circle cx="80" cy="90" r="13" fill="#C4B5FD"/><circle cx="55" cy="65" r="7" fill="#22D3EE"/><circle cx="105" cy="65" r="7" fill="#2F81F7"/><circle cx="55" cy="116" r="7" fill="#F59E0B"/><circle cx="105" cy="116" r="7" fill="#3FB950"/><g stroke="#C4B5FD" stroke-width="3"><path d="M63 73l9 9M97 73l-9 9M63 108l9-10M97 108l-9-10"/></g><text x="160" y="75" fill="#C4B5FD" font-family="Consolas, monospace" font-size="17" letter-spacing="2">02 / BUILD</text><text x="160" y="116" fill="#F0F6FC" font-family="'Segoe UI', Arial, sans-serif" font-size="29" font-weight="750">Applied AI &amp; Tools</text><text x="160" y="145" fill="#C9D1D9" font-family="'Segoe UI', Arial, sans-serif" font-size="19">Developer utilities · prototypes</text></svg>
